<svg version="1.1" id="Layer_1" xmlns="http://www.w3.org/2000/svg" xmlns:xlink="http://www.w3.org/1999/xlink" x="0px" y="0px"
	 width="100%" viewBox="0 0 1384 288" enable-background="new 0 0 1384 288" xml:space="preserve">
<path fill="#FDFDFD" opacity="1.000000" stroke="none" 
	d="
M935.000000,289.000000 
	C623.333374,289.000000 312.166748,289.000000 1.000083,289.000000 
	C1.000056,193.000046 1.000056,97.000099 1.000028,1.000109 
	C462.333221,1.000073 923.666443,1.000073 1384.999756,1.000036 
	C1384.999756,96.999886 1384.999756,192.999771 1384.999878,288.999817 
	C1235.166626,289.000000 1085.333374,289.000000 935.000000,289.000000 
M1073.476685,257.129639 
	C1072.604492,258.044464 1071.732300,258.959290 1070.949707,260.825775 
	C1071.743530,261.000671 1072.537354,261.328461 1073.331177,261.328125 
	C1093.553345,261.320251 1113.775513,261.278015 1134.426758,261.612244 
	C1135.192993,261.245026 1135.959106,260.877838 1137.325439,260.222931 
	C1134.566772,258.499756 1132.401123,257.147095 1130.087280,255.933014 
	C1130.087280,255.933014 1130.200806,255.764755 1130.184204,255.112289 
	C1129.396606,254.491013 1128.609131,253.869736 1127.820801,253.163818 
	C1127.820801,253.163818 1127.737061,253.176224 1127.787720,252.466827 
	C1124.836548,246.720963 1121.197998,241.218887 1119.058105,235.185272 
	C1111.473145,213.798935 1103.584106,192.555054 1092.647583,172.618301 
	C1089.037109,166.036530 1084.542969,159.939453 1080.338623,153.237350 
	C1080.338623,153.237350 1080.111694,152.907928 1080.200195,152.188797 
	C1077.799438,148.550018 1075.398804,144.911240 1072.801514,140.974518 
	C1074.075317,140.768097 1074.716919,140.598877 1075.364990,140.568695 
	C1090.766235,139.851395 1103.574341,133.751968 1113.135742,121.623680 
	C1118.578613,114.719482 1122.713257,107.044212 1122.790649,97.218277 
	C1122.799805,96.807915 1122.808960,96.397545 1123.282837,95.336205 
	C1122.478271,88.182068 1122.699341,80.699326 1120.545776,73.977371 
	C1118.811157,68.562935 1114.206299,64.068062 1110.920166,59.082386 
	C1110.920166,59.082386 1110.834106,59.121136 1110.909790,58.458107 
	C1110.238525,58.016682 1109.567139,57.575256 1108.959106,57.044872 
	C1108.959106,57.044872 1108.865967,57.101765 1108.938110,56.410748 
	C1107.648438,55.153217 1106.470825,53.749565 1105.051636,52.661106 
	C1092.909180,43.349014 1079.021729,38.812260 1063.855957,38.704254 
	C1032.756470,38.482761 1001.654480,38.603161 970.553528,38.628113 
	C968.888489,38.629448 967.223755,39.048180 966.458618,39.151321 
	C970.841125,44.532848 975.087524,49.747284 979.375122,55.564426 
	C979.472900,55.954170 979.570618,56.343918 979.326111,57.464611 
	C979.994446,59.630966 980.662720,61.797321 981.336365,64.724007 
	C981.437866,65.731758 981.539368,66.739510 981.240540,68.640778 
	C981.289734,119.883263 981.334595,171.125748 981.397217,222.368225 
	C981.401611,225.998871 981.535400,229.629333 981.484375,234.006073 
	C981.415283,235.012177 981.346191,236.018280 980.691284,237.482895 
	C980.312317,239.740829 979.933350,241.998764 979.384644,244.832413 
	C979.330261,245.228455 979.275818,245.624481 978.591370,246.321869 
	C975.742920,252.414642 971.861450,257.561707 965.490906,260.941162 
	C966.325073,261.029968 967.159302,261.118774 968.923035,261.345612 
	C989.949524,261.300537 1010.975952,261.255463 1032.469971,261.590759 
	C1033.882080,259.894653 1033.953125,259.767395 1032.126587,258.747559 
	C1026.519897,255.616974 1022.747559,251.096313 1021.332764,244.782303 
	C1020.084167,239.209885 1018.957703,233.610092 1017.795532,227.093048 
	C1017.701355,222.801971 1017.607239,218.510895 1017.943787,213.340332 
	C1017.943787,183.472427 1017.943787,153.604523 1017.943787,123.736618 
	C1018.483032,123.541847 1019.022278,123.347069 1019.561523,123.152290 
	C1022.867188,126.354225 1026.344604,129.398666 1029.449829,132.784348 
	C1046.081665,150.918106 1057.175171,172.332169 1066.074341,195.033813 
	C1068.039551,200.047241 1070.171875,204.995270 1072.295288,210.576218 
	C1072.408936,210.963593 1072.522583,211.350967 1072.304321,212.414047 
	C1072.989746,213.929092 1073.675171,215.444153 1074.396118,217.562103 
	C1074.489258,217.952805 1074.582275,218.343506 1074.321655,219.401611 
	C1074.981201,220.923019 1075.640869,222.444427 1076.339355,224.569595 
	C1076.432495,224.961334 1076.525635,225.353073 1076.285400,226.457703 
	C1076.952515,228.294113 1077.619507,230.130539 1078.309937,232.669342 
	C1078.408325,233.364609 1078.506592,234.059875 1078.245361,235.657547 
	C1078.357178,239.857086 1078.468994,244.056641 1078.434937,248.837555 
	C1078.391479,249.234421 1078.348145,249.631302 1077.692017,250.359726 
	C1076.527344,252.620956 1075.362671,254.882202 1074.120239,257.122864 
	C1074.120239,257.122864 1074.140747,257.200806 1073.476685,257.129639 
M51.098351,255.855621 
	C49.189064,256.992371 47.258236,258.096954 45.414383,259.331421 
	C45.277573,259.423035 45.765675,260.447968 46.873543,261.302032 
	C68.249863,261.245239 89.626183,261.188446 111.402374,261.487640 
	C112.299599,259.761505 112.362297,259.649872 110.471481,258.587921 
	C104.770149,255.385864 100.917763,250.644287 99.900085,244.248856 
	C98.495300,235.420578 96.945290,226.505753 96.804169,217.606659 
	C96.384544,191.146484 96.705864,164.675323 96.531258,138.209824 
	C96.498848,133.296448 99.227325,131.330322 103.186157,130.324921 
	C105.073242,129.845688 107.301956,129.612930 109.118477,130.145935 
	C116.727654,132.378616 124.323845,134.714035 131.762619,137.452362 
	C138.946259,140.096786 146.081390,141.904831 153.589310,139.217361 
	C165.608124,134.915207 172.439575,125.610367 177.107803,114.343719 
	C177.858902,112.530922 178.156769,110.530334 178.938110,107.583199 
	C177.227615,108.498062 176.565598,108.677750 176.150940,109.100220 
	C170.410843,114.948357 163.541779,116.058418 155.954346,113.846130 
	C150.071365,112.130798 144.150360,110.482765 138.403503,108.375931 
	C123.290375,102.835327 109.775513,104.959373 99.316269,118.658661 
	C98.983871,119.094032 98.265450,119.234673 96.439545,120.177498 
	C96.439545,100.100586 96.439545,80.918564 97.285950,61.461502 
	C113.729149,61.462234 130.172348,61.462967 146.955200,62.074726 
	C153.809402,63.556080 160.057663,65.873764 162.533539,73.921150 
	C162.590134,74.280724 162.646744,74.640305 162.281906,75.439697 
	C162.602325,76.246414 162.922760,77.053139 163.761200,79.164078 
	C170.906464,64.563461 177.493286,51.103981 184.350204,37.092545 
	C176.147964,37.670734 169.397552,38.534077 162.644119,38.558327 
	C125.189857,38.692799 87.734840,38.612362 50.280148,38.654545 
	C48.328186,38.656742 46.376728,39.108334 44.425037,39.350708 
	C44.403240,39.741096 44.381439,40.131485 44.359642,40.521873 
	C47.283073,42.289898 50.206509,44.057922 53.078651,45.904106 
	C53.078651,45.904106 53.169590,45.882435 53.057892,46.613518 
	C55.194401,51.213509 57.330906,55.813499 59.464367,61.060600 
	C59.548569,61.701267 59.632774,62.341938 59.336411,63.681942 
	C59.660233,68.319702 60.258530,72.957039 60.265579,77.595284 
	C60.339108,125.968719 60.333000,174.342300 60.298645,222.715805 
	C60.295258,227.484238 59.957607,232.252426 59.633118,237.716507 
	C59.554859,238.659241 59.476601,239.601974 58.810768,240.906967 
	C58.156727,243.251907 57.502686,245.596832 56.283569,248.266312 
	C54.795380,250.778412 53.307194,253.290527 51.980141,255.980530 
	C51.980141,255.980530 51.802563,255.819031 51.098351,255.855621 
M819.536560,74.246475 
	C819.532837,125.374237 819.529053,176.501999 818.953552,228.083847 
	C818.419983,231.685699 817.927307,235.294189 817.344543,238.888046 
	C816.003662,247.156906 813.152649,254.507126 805.150513,258.695099 
	C804.360962,259.108307 803.685059,259.738525 802.956360,260.267975 
	C803.024170,260.599274 803.091980,260.930603 803.159790,261.261902 
	C804.104980,261.261902 805.050232,261.261902 806.929810,261.348297 
	C846.163879,261.388611 885.398010,261.428925 924.996887,262.022552 
	C926.385681,262.576935 927.906677,262.926666 929.139526,263.722565 
	C933.576782,266.587158 934.491211,263.977753 934.946411,260.242828 
	C935.247681,257.770844 935.754272,255.322922 936.197571,252.869400 
	C938.592529,239.615524 941.031494,226.369370 943.349548,213.102081 
	C943.616821,211.572189 943.228516,209.927765 943.133667,208.138702 
	C941.959534,208.484009 941.518127,208.477264 941.361633,208.685104 
	C940.867371,209.341537 940.449463,210.061813 940.055481,210.786469 
	C930.578979,228.216873 915.459656,236.368561 896.083191,237.017395 
	C884.597168,237.402023 873.082520,236.916153 861.594666,237.272003 
	C856.664246,237.424728 855.431763,235.710037 855.458374,230.993332 
	C855.638184,199.165604 855.548645,167.336380 855.555420,135.507629 
	C855.556702,129.460861 858.063904,126.663330 864.156006,126.409630 
	C866.772705,126.300652 869.553406,126.489662 872.025635,127.277611 
	C877.871765,129.140869 883.638306,131.294815 889.326416,133.603760 
	C898.128784,137.176926 906.986755,138.742142 915.843140,134.231384 
	C926.703369,128.700073 932.906799,119.236038 936.793579,108.056854 
	C937.128418,107.093712 936.559204,105.816238 936.286255,103.747414 
	C930.052368,110.827080 923.139832,112.855034 915.254578,110.635437 
	C908.401611,108.706406 901.724365,106.162010 894.907898,104.092354 
	C881.404480,99.992355 870.101135,101.491470 859.937927,112.624237 
	C858.985657,113.667366 858.530884,115.164642 857.845154,116.451080 
	C857.254395,116.030991 856.663574,115.610901 856.072754,115.190811 
	C856.072754,97.573448 856.072754,79.956093 856.072754,62.356571 
	C871.918762,62.356571 887.542480,61.931709 903.127197,62.526497 
	C911.578430,62.849033 918.235046,66.748901 918.564026,76.731743 
	C918.575806,77.091324 919.155151,77.432213 920.215759,78.609962 
	C927.096863,64.657440 933.753357,51.160194 940.741882,36.989880 
	C933.112915,37.594395 926.715332,38.515873 920.314331,38.540165 
	C883.320190,38.680557 846.325256,38.602245 809.330627,38.628338 
	C807.308655,38.629765 805.286865,38.903862 801.943176,39.147255 
	C803.894043,40.772652 804.627563,41.622730 805.551636,42.114342 
	C811.031006,45.029190 814.387634,49.545441 815.742554,55.536556 
	C817.082214,61.460930 818.290955,67.414909 819.536560,74.246475 
M690.838928,98.245941 
	C686.293152,107.551445 681.747314,116.856956 676.640686,127.310600 
	C675.145813,124.816574 674.254639,123.530640 673.562439,122.145287 
	C660.433777,95.869675 647.251770,69.619980 634.316895,43.249107 
	C632.721558,39.996655 630.910217,38.961582 627.465637,38.995247 
	C611.970398,39.146667 596.472717,39.051079 580.976013,39.078671 
	C579.584839,39.081150 578.194153,39.328079 576.803223,39.461479 
	C583.848633,43.884342 588.043945,49.926857 589.010010,57.728874 
	C589.907104,64.974190 590.488708,72.350998 590.212463,79.632095 
	C589.334534,102.771729 588.041138,125.896355 586.814636,149.021805 
	C585.552795,172.812378 584.684509,196.639725 582.675171,220.368942 
	C581.394531,235.493423 581.731384,251.956650 563.770630,260.845276 
	C584.995667,260.845276 604.873596,260.845276 625.595947,260.845276 
	C615.502380,254.328140 612.211609,248.807434 611.499451,237.441727 
	C611.176880,232.292801 610.921814,227.104736 611.171143,221.960373 
	C613.219849,179.693954 615.390076,137.433426 617.559021,95.172935 
	C617.609253,94.194672 618.076050,93.237793 618.544006,91.577332 
	C636.241211,126.240448 652.477722,160.686172 670.615356,195.531616 
	C688.122314,159.891998 704.803406,125.933617 721.484497,91.975235 
	C722.971191,93.920784 723.407227,95.645737 723.507263,97.389946 
	C725.261841,127.993866 727.038757,158.596756 728.669495,189.207413 
	C729.413635,203.176697 730.115784,217.158981 730.292480,231.142258 
	C730.358887,236.393860 729.879700,242.094849 727.845093,246.812958 
	C725.558044,252.116592 721.232422,256.541107 718.139587,260.864441 
	C738.943848,260.864441 761.011414,260.864441 783.078979,260.864441 
	C772.435852,255.642654 769.283569,245.985184 767.445435,235.835388 
	C766.144043,228.649857 765.609497,221.292557 765.190796,213.985657 
	C763.322449,181.385834 761.430908,148.785217 759.930725,116.167252 
	C759.112915,98.385818 758.813354,80.569962 758.760437,62.768196 
	C758.732178,53.247025 762.499207,45.302250 771.305664,40.460136 
	C771.411072,40.402187 771.269226,39.894421 771.245972,39.586201 
	C770.963501,39.442837 770.681335,39.174835 770.398438,39.173950 
	C754.569641,39.124428 738.739380,38.995934 722.914307,39.227425 
	C721.364868,39.250088 719.212097,41.180515 718.413269,42.766350 
	C709.234680,60.987648 700.263916,79.313644 690.838928,98.245941 
M490.983276,213.679230 
	C492.350311,218.644287 494.002075,223.551392 495.026978,228.586105 
	C497.377319,240.131897 499.757874,251.809448 487.496399,260.873505 
	C510.010315,260.873505 531.559143,260.873505 553.633850,260.873505 
	C542.499084,249.989716 538.675232,243.831360 534.491394,231.089462 
	C525.133118,202.588623 513.184692,175.301819 496.273560,150.373199 
	C494.188324,147.299408 492.024475,144.278976 489.721802,140.982971 
	C494.939423,139.973846 499.502472,139.330673 503.938324,138.191956 
	C523.119934,133.267776 535.058167,120.828537 539.610474,101.819870 
	C543.459656,85.747513 539.643066,71.103622 528.433777,58.764767 
	C516.271606,45.377102 500.286530,39.757862 482.904724,39.367039 
	C451.262512,38.655575 419.594360,39.094189 387.937012,39.085804 
	C386.795441,39.085503 385.653809,39.433170 383.880737,39.721275 
	C394.503021,46.970863 398.183319,53.069435 399.108521,65.338341 
	C399.721863,73.471748 400.115021,81.640594 400.149017,89.795479 
	C400.270569,118.953445 400.281616,148.112549 400.165222,177.270569 
	C400.094727,194.925674 399.919891,212.585632 399.398987,230.231827 
	C399.036621,242.508423 396.833496,254.186172 383.040375,260.803009 
	C406.623749,260.803009 428.809967,260.803009 450.996155,260.803009 
	C443.666504,256.776733 439.420685,250.756012 437.872620,243.112091 
	C436.590820,236.782990 435.674469,230.264069 435.623291,223.821091 
	C435.366455,191.498825 435.440918,159.173859 435.429596,126.849838 
	C435.429077,125.327858 435.720398,123.805771 435.997498,121.092255 
	C464.749237,146.502029 479.603699,178.589371 490.983276,213.679230 
M316.196869,226.683319 
	C317.643616,239.029404 320.867249,251.797714 307.046570,260.879211 
	C329.876343,260.879211 351.650574,260.879211 374.106140,260.879211 
	C364.253662,253.589630 361.543701,251.020859 358.674347,241.758362 
	C353.024780,223.521133 347.847717,205.131439 342.792542,186.717697 
	C336.282959,163.006409 330.129639,139.197571 323.740112,115.453011 
	C317.305237,91.539871 310.649689,67.685120 304.400909,43.723923 
	C303.422974,39.974041 301.870514,38.973671 298.303772,39.004852 
	C282.473816,39.143261 266.641968,39.054913 250.810898,39.087254 
	C249.595459,39.089737 248.380646,39.392380 246.443420,39.652447 
	C254.850235,46.987759 254.566772,55.972351 252.562714,64.654755 
	C246.284607,91.854218 239.631775,118.971733 232.755493,146.027313 
	C225.796997,173.406296 218.630783,200.737793 211.089951,227.961121 
	C207.624496,240.471863 204.725266,253.680069 190.210373,260.889496 
	C210.713867,260.889496 229.782364,260.889496 248.850861,260.889496 
	C240.684708,255.663254 238.562912,247.958298 239.492920,239.437561 
	C240.572891,229.542526 242.420181,219.722443 244.252869,209.929413 
	C244.483444,208.697205 246.639709,206.934265 247.917709,206.922424 
	C268.079742,206.735718 288.244598,206.741043 308.406647,206.929398 
	C309.668091,206.941162 311.641449,208.603226 312.036469,209.882568 
	C313.651764,215.113693 314.782593,220.494400 316.196869,226.683319 
M1159.413086,204.780472 
	C1158.269409,208.944016 1157.254272,213.147964 1155.959839,217.264099 
	C1150.207275,235.556427 1151.352661,239.210999 1166.061523,249.282379 
	C1187.285522,263.814789 1210.748901,267.766296 1235.585449,262.899841 
	C1252.193726,259.645630 1266.548340,251.675476 1276.441040,237.402939 
	C1293.872437,212.253876 1292.203491,174.039764 1264.249390,152.278488 
	C1251.729492,142.532074 1237.808960,134.560638 1224.368286,126.029305 
	C1214.242432,119.602135 1203.838013,113.549103 1196.845337,103.409393 
	C1190.068115,93.581795 1188.806030,82.812996 1194.235474,72.244240 
	C1199.496704,62.002831 1209.184204,58.552334 1220.258545,58.873028 
	C1238.834106,59.410946 1252.024292,69.219666 1262.171997,83.870018 
	C1264.851929,87.739250 1266.887329,92.054886 1269.218628,96.165550 
	C1269.690796,96.061562 1270.162964,95.957573 1270.635254,95.853584 
	C1269.887085,78.447678 1269.139038,61.041771 1268.424927,44.427174 
	C1264.610596,44.160324 1261.804443,44.337936 1259.191895,43.709805 
	C1251.926392,41.962883 1244.791992,39.661667 1237.513916,37.976276 
	C1221.074341,34.169315 1204.755249,34.359684 1189.058350,41.161415 
	C1170.740234,49.099072 1159.712402,62.921684 1156.980835,82.914116 
	C1153.857666,105.773109 1162.112305,124.378754 1179.979614,138.097733 
	C1192.575562,147.769287 1206.485718,155.739761 1219.886597,164.349304 
	C1230.399780,171.103668 1241.098633,177.718521 1247.741211,188.734116 
	C1254.579712,200.074768 1255.439453,212.060577 1248.958496,223.828094 
	C1242.734863,235.128021 1231.962402,239.178024 1219.904419,238.598755 
	C1201.586060,237.718750 1187.493530,228.770432 1177.489990,213.401016 
	C1171.539185,204.258148 1168.375610,194.093903 1165.665405,183.219315 
	C1163.638062,190.141174 1161.610718,197.063034 1159.413086,204.780472 
z"/>
<path fill="#070707" opacity="1.000000" stroke="none" 
	d="
M691.038452,97.928864 
	C700.263916,79.313644 709.234680,60.987648 718.413269,42.766350 
	C719.212097,41.180515 721.364868,39.250088 722.914307,39.227425 
	C738.739380,38.995934 754.569641,39.124428 770.398438,39.173950 
	C770.681335,39.174835 770.963501,39.442837 771.244385,39.591412 
	C771.269226,39.894421 771.411072,40.402187 771.305664,40.460136 
	C762.499207,45.302250 758.732178,53.247025 758.760437,62.768196 
	C758.813354,80.569962 759.112915,98.385818 759.930725,116.167252 
	C761.430908,148.785217 763.322449,181.385834 765.190796,213.985657 
	C765.609497,221.292557 766.144043,228.649857 767.445435,235.835388 
	C769.283569,245.985184 772.435852,255.642654 783.078979,260.864441 
	C761.011414,260.864441 738.943848,260.864441 718.139587,260.864441 
	C721.232422,256.541107 725.558044,252.116592 727.845093,246.812958 
	C729.879700,242.094849 730.358887,236.393860 730.292480,231.142258 
	C730.115784,217.158981 729.413635,203.176697 728.669495,189.207413 
	C727.038757,158.596756 725.261841,127.993866 723.507263,97.389946 
	C723.407227,95.645737 722.971191,93.920784 721.484497,91.975235 
	C704.803406,125.933617 688.122314,159.891998 670.615356,195.531616 
	C652.477722,160.686172 636.241211,126.240448 618.544006,91.577332 
	C618.076050,93.237793 617.609253,94.194672 617.559021,95.172935 
	C615.390076,137.433426 613.219849,179.693954 611.171143,221.960373 
	C610.921814,227.104736 611.176880,232.292801 611.499451,237.441727 
	C612.211609,248.807434 615.502380,254.328140 625.595947,260.845276 
	C604.873596,260.845276 584.995667,260.845276 563.770630,260.845276 
	C581.731384,251.956650 581.394531,235.493423 582.675171,220.368942 
	C584.684509,196.639725 585.552795,172.812378 586.814636,149.021805 
	C588.041138,125.896355 589.334534,102.771729 590.212463,79.632095 
	C590.488708,72.350998 589.907104,64.974190 589.010010,57.728874 
	C588.043945,49.926857 583.848633,43.884342 576.803223,39.461479 
	C578.194153,39.328079 579.584839,39.081150 580.976013,39.078671 
	C596.472717,39.051079 611.970398,39.146667 627.465637,38.995247 
	C630.910217,38.961582 632.721558,39.996655 634.316895,43.249107 
	C647.251770,69.619980 660.433777,95.869675 673.562439,122.145287 
	C674.254639,123.530640 675.145813,124.816574 676.640686,127.310600 
	C681.747314,116.856956 686.293152,107.551445 691.038452,97.928864 
z"/>
<path fill="#070707" opacity="1.000000" stroke="none" 
	d="
M490.831390,213.306610 
	C479.603699,178.589371 464.749237,146.502029 435.997498,121.092255 
	C435.720398,123.805771 435.429077,125.327858 435.429596,126.849838 
	C435.440918,159.173859 435.366455,191.498825 435.623291,223.821091 
	C435.674469,230.264069 436.590820,236.782990 437.872620,243.112091 
	C439.420685,250.756012 443.666504,256.776733 450.996155,260.803009 
	C428.809967,260.803009 406.623749,260.803009 383.040375,260.803009 
	C396.833496,254.186172 399.036621,242.508423 399.398987,230.231827 
	C399.919891,212.585632 400.094727,194.925674 400.165222,177.270569 
	C400.281616,148.112549 400.270569,118.953445 400.149017,89.795479 
	C400.115021,81.640594 399.721863,73.471748 399.108521,65.338341 
	C398.183319,53.069435 394.503021,46.970863 383.880737,39.721275 
	C385.653809,39.433170 386.795441,39.085503 387.937012,39.085804 
	C419.594360,39.094189 451.262512,38.655575 482.904724,39.367039 
	C500.286530,39.757862 516.271606,45.377102 528.433777,58.764767 
	C539.643066,71.103622 543.459656,85.747513 539.610474,101.819870 
	C535.058167,120.828537 523.119934,133.267776 503.938324,138.191956 
	C499.502472,139.330673 494.939423,139.973846 489.721802,140.982971 
	C492.024475,144.278976 494.188324,147.299408 496.273560,150.373199 
	C513.184692,175.301819 525.133118,202.588623 534.491394,231.089462 
	C538.675232,243.831360 542.499084,249.989716 553.633850,260.873505 
	C531.559143,260.873505 510.010315,260.873505 487.496399,260.873505 
	C499.757874,251.809448 497.377319,240.131897 495.026978,228.586105 
	C494.002075,223.551392 492.350311,218.644287 490.831390,213.306610 
M479.035858,118.699295 
	C493.911194,116.199364 502.117279,107.501305 502.274109,94.067802 
	C502.441223,79.754219 492.612976,66.236038 477.353241,63.415249 
	C464.587616,61.055489 451.308380,61.417168 438.244537,60.851852 
	C437.338440,60.812645 435.550415,63.054291 435.497253,64.292137 
	C435.102509,73.485519 436.145050,82.503479 439.670807,91.129761 
	C447.004974,109.073929 461.390991,119.452782 479.035858,118.699295 
z"/>
<path fill="#030303" opacity="1.000000" stroke="none" 
	d="
M1032.002441,261.210388 
	C1010.975952,261.255463 989.949524,261.300537 968.542603,260.936188 
	C969.644348,259.528625 971.591919,258.844604 972.518555,257.471558 
	C974.987549,253.812973 977.017151,249.857803 979.221436,246.020538 
	C979.275818,245.624481 979.330261,245.228455 979.781982,244.419388 
	C980.545288,241.679031 980.911194,239.351715 981.277100,237.024384 
	C981.346191,236.018280 981.415283,235.012177 981.838989,233.429092 
	C982.690186,229.917725 983.614319,226.984100 983.619568,224.048843 
	C983.707947,174.771988 983.715393,125.494858 983.593872,76.218155 
	C983.586914,73.392944 982.320862,70.570831 981.640869,67.747269 
	C981.539368,66.739510 981.437866,65.731758 981.564697,64.075668 
	C981.084839,61.196110 980.376587,58.964890 979.668396,56.733665 
	C979.570618,56.343918 979.472900,55.954170 979.578369,55.024506 
	C976.970886,49.679527 974.160095,44.874470 971.352722,40.075226 
	C971.469421,40.063240 972.244934,39.913921 973.020386,39.914051 
	C1002.615723,39.919018 1032.221191,39.510818 1061.800293,40.210243 
	C1070.875366,40.424824 1080.190674,42.788368 1088.817505,45.815994 
	C1095.942993,48.316715 1102.215454,53.247681 1108.865967,57.101772 
	C1108.865967,57.101765 1108.959106,57.044872 1108.887695,57.417816 
	C1109.488770,58.234211 1110.161499,58.677662 1110.834106,59.121124 
	C1110.834106,59.121136 1110.920166,59.082386 1110.867432,59.478081 
	C1116.116089,67.103851 1120.371094,74.825493 1121.617676,83.859077 
	C1122.172485,87.880424 1122.427002,91.943214 1122.817993,95.987183 
	C1122.808960,96.397545 1122.799805,96.807915 1122.395020,97.629768 
	C1120.335083,102.867783 1119.193481,107.958969 1116.909546,112.471985 
	C1109.594116,126.926895 1097.680542,135.396515 1081.691895,138.137665 
	C1077.930542,138.782532 1074.195679,139.582443 1069.508057,140.493896 
	C1073.596558,145.280365 1076.854126,149.094147 1080.111694,152.907928 
	C1080.111694,152.907928 1080.338623,153.237350 1080.263672,153.777100 
	C1085.517822,163.933716 1091.618286,173.212952 1096.007690,183.241104 
	C1103.975708,201.444748 1110.701172,220.188843 1118.441284,238.497696 
	C1120.665894,243.759995 1124.591431,248.303253 1127.737061,253.176224 
	C1127.737061,253.176224 1127.820801,253.163818 1127.794189,253.555695 
	C1128.578613,254.553284 1129.389771,255.159012 1130.200806,255.764740 
	C1130.200806,255.764755 1130.087280,255.933014 1130.097656,256.206329 
	C1131.404541,258.067017 1132.701050,259.654419 1133.997681,261.241821 
	C1113.775513,261.278015 1093.553345,261.320251 1073.331177,261.328125 
	C1072.537354,261.328461 1071.743530,261.000671 1071.246216,260.409180 
	C1072.408691,259.061981 1073.274780,258.131409 1074.140747,257.200806 
	C1074.140747,257.200806 1074.120239,257.122864 1074.503052,257.138916 
	C1076.025513,254.779343 1077.165039,252.403732 1078.304688,250.028152 
	C1078.348145,249.631302 1078.391479,249.234421 1078.803223,248.366089 
	C1081.437866,243.408966 1081.460449,239.020020 1078.604980,234.755157 
	C1078.506592,234.059875 1078.408325,233.364609 1078.531982,232.076660 
	C1078.042358,229.570923 1077.330566,227.657852 1076.618896,225.744797 
	C1076.525635,225.353073 1076.432495,224.961334 1076.545654,224.043518 
	C1076.059692,221.923019 1075.367554,220.328598 1074.675415,218.734192 
	C1074.582275,218.343506 1074.489258,217.952805 1074.597412,217.029022 
	C1074.078003,214.910080 1073.357056,213.324203 1072.636230,211.738327 
	C1072.522583,211.350967 1072.408936,210.963593 1072.499756,210.040436 
	C1068.064819,197.739212 1063.947876,185.733276 1058.666382,174.263458 
	C1050.276978,156.043671 1039.402466,139.368912 1024.656860,125.507904 
	C1022.728149,123.694939 1020.434143,122.270538 1017.204041,119.831520 
	C1016.822449,123.875450 1016.399353,126.297638 1016.395081,128.720566 
	C1016.347656,155.541229 1016.344666,182.362061 1016.414490,209.182617 
	C1016.418823,210.862625 1017.130432,212.540802 1017.513062,214.219818 
	C1017.607239,218.510895 1017.701355,222.801971 1017.533203,227.866699 
	C1018.556335,235.558334 1018.837769,242.890121 1021.461792,249.256332 
	C1023.375977,253.900238 1028.377319,257.271667 1032.002441,261.210388 
M1054.689819,61.643620 
	C1043.383911,61.299480 1032.077026,60.982105 1020.772827,60.592381 
	C1017.945496,60.494904 1017.334229,62.098377 1017.571289,64.398018 
	C1018.250488,70.984627 1018.322083,77.722389 1019.833252,84.117004 
	C1023.423035,99.308357 1031.891357,110.854347 1046.820068,116.927422 
	C1057.833862,121.407906 1072.062134,118.312752 1078.812866,109.889374 
	C1086.270752,100.583542 1086.451538,87.384903 1079.353516,76.935440 
	C1073.579468,68.435226 1065.064453,64.344231 1054.689819,61.643620 
z"/>
<path fill="#060606" opacity="1.000000" stroke="none" 
	d="
M316.144348,226.251678 
	C314.782593,220.494400 313.651764,215.113693 312.036469,209.882568 
	C311.641449,208.603226 309.668091,206.941162 308.406647,206.929398 
	C288.244598,206.741043 268.079742,206.735718 247.917709,206.922424 
	C246.639709,206.934265 244.483444,208.697205 244.252869,209.929413 
	C242.420181,219.722443 240.572891,229.542526 239.492920,239.437561 
	C238.562912,247.958298 240.684708,255.663254 248.850861,260.889496 
	C229.782364,260.889496 210.713867,260.889496 190.210373,260.889496 
	C204.725266,253.680069 207.624496,240.471863 211.089951,227.961121 
	C218.630783,200.737793 225.796997,173.406296 232.755493,146.027313 
	C239.631775,118.971733 246.284607,91.854218 252.562714,64.654755 
	C254.566772,55.972351 254.850235,46.987759 246.443420,39.652447 
	C248.380646,39.392380 249.595459,39.089737 250.810898,39.087254 
	C266.641968,39.054913 282.473816,39.143261 298.303772,39.004852 
	C301.870514,38.973671 303.422974,39.974041 304.400909,43.723923 
	C310.649689,67.685120 317.305237,91.539871 323.740112,115.453011 
	C330.129639,139.197571 336.282959,163.006409 342.792542,186.717697 
	C347.847717,205.131439 353.024780,223.521133 358.674347,241.758362 
	C361.543701,251.020859 364.253662,253.589630 374.106140,260.879211 
	C351.650574,260.879211 329.876343,260.879211 307.046570,260.879211 
	C320.867249,251.797714 317.643616,239.029404 316.144348,226.251678 
M252.825409,173.929443 
	C252.268616,175.996857 251.647644,178.049576 251.170624,180.135239 
	C250.513077,183.010086 251.873093,184.047852 254.663849,184.039368 
	C270.330170,183.991699 285.996674,184.012161 301.663147,184.018646 
	C304.650574,184.019897 305.967316,183.034317 304.956329,179.728760 
	C303.303680,174.325439 301.985168,168.820190 300.512146,163.361588 
	C294.189880,139.932938 287.886627,116.499084 281.516968,93.083313 
	C280.253754,88.439636 278.728912,83.867149 277.324738,79.261833 
	C275.265228,81.822578 274.338440,84.277695 273.714600,86.807526 
	C268.461700,108.109833 263.198059,129.409973 258.087585,150.746658 
	C256.401794,157.784927 255.154419,164.928207 253.560715,172.529892 
	C253.525818,172.878937 253.490921,173.227982 252.825409,173.929443 
z"/>
<path fill="#080808" opacity="1.000000" stroke="none" 
	d="
M1159.498291,204.382690 
	C1161.610718,197.063034 1163.638062,190.141174 1165.665405,183.219315 
	C1168.375610,194.093903 1171.539185,204.258148 1177.489990,213.401016 
	C1187.493530,228.770432 1201.586060,237.718750 1219.904419,238.598755 
	C1231.962402,239.178024 1242.734863,235.128021 1248.958496,223.828094 
	C1255.439453,212.060577 1254.579712,200.074768 1247.741211,188.734116 
	C1241.098633,177.718521 1230.399780,171.103668 1219.886597,164.349304 
	C1206.485718,155.739761 1192.575562,147.769287 1179.979614,138.097733 
	C1162.112305,124.378754 1153.857666,105.773109 1156.980835,82.914116 
	C1159.712402,62.921684 1170.740234,49.099072 1189.058350,41.161415 
	C1204.755249,34.359684 1221.074341,34.169315 1237.513916,37.976276 
	C1244.791992,39.661667 1251.926392,41.962883 1259.191895,43.709805 
	C1261.804443,44.337936 1264.610596,44.160324 1268.424927,44.427174 
	C1269.139038,61.041771 1269.887085,78.447678 1270.635254,95.853584 
	C1270.162964,95.957573 1269.690796,96.061562 1269.218628,96.165550 
	C1266.887329,92.054886 1264.851929,87.739250 1262.171997,83.870018 
	C1252.024292,69.219666 1238.834106,59.410946 1220.258545,58.873028 
	C1209.184204,58.552334 1199.496704,62.002831 1194.235474,72.244240 
	C1188.806030,82.812996 1190.068115,93.581795 1196.845337,103.409393 
	C1203.838013,113.549103 1214.242432,119.602135 1224.368286,126.029305 
	C1237.808960,134.560638 1251.729492,142.532074 1264.249390,152.278488 
	C1292.203491,174.039764 1293.872437,212.253876 1276.441040,237.402939 
	C1266.548340,251.675476 1252.193726,259.645630 1235.585449,262.899841 
	C1210.748901,267.766296 1187.285522,263.814789 1166.061523,249.282379 
	C1151.352661,239.210999 1150.207275,235.556427 1155.959839,217.264099 
	C1157.254272,213.147964 1158.269409,208.944016 1159.498291,204.382690 
z"/>
<path fill="#010101" opacity="1.000000" stroke="none" 
	d="
M924.632080,261.469269 
	C885.398010,261.428925 846.163879,261.388611 806.506958,260.950134 
	C817.640808,252.466934 820.699219,240.912338 819.525269,227.629761 
	C819.529053,176.501999 819.532837,125.374237 819.760315,73.358658 
	C820.252319,60.348099 817.896973,49.187191 807.102234,40.186832 
	C850.831238,40.186832 893.338806,40.186832 937.125122,40.186832 
	C931.643188,51.396011 926.432739,62.050137 921.034119,73.088959 
	C913.673157,62.935711 910.525330,60.712822 901.524902,60.565395 
	C887.200867,60.330772 872.870422,60.511257 858.543091,60.432568 
	C854.786804,60.411938 853.265564,61.847706 853.305847,65.798317 
	C853.474182,82.290199 853.359924,98.784851 853.407593,115.278313 
	C853.412048,116.810074 853.827515,118.340652 854.052063,119.871780 
	C854.908630,120.466515 855.765198,121.061241 856.621704,121.655975 
	C857.466248,119.899323 858.047180,117.943947 859.197693,116.417946 
	C867.366882,105.581772 877.805908,101.216637 893.081726,105.548080 
	C906.307556,109.298256 919.111328,117.422905 934.383362,109.447220 
	C933.330811,111.964523 932.873596,113.526733 932.076599,114.890289 
	C925.332642,126.427849 916.931702,136.042709 902.133667,135.078629 
	C896.722534,134.726105 891.406189,132.050537 886.168579,130.106262 
	C878.383240,127.216248 870.757935,123.899719 862.111755,125.120667 
	C856.436157,125.922142 853.383606,129.047287 853.381470,134.556808 
	C853.368774,167.544022 853.432800,200.531433 853.310364,233.518188 
	C853.293579,238.050873 854.858032,239.753540 859.432983,239.667542 
	C870.924500,239.451523 882.443176,240.018829 893.912781,239.471481 
	C907.018066,238.846115 919.460815,235.581528 929.666321,226.612076 
	C933.072327,223.618607 936.245483,220.360229 939.525024,217.222946 
	C939.924866,217.291183 940.324707,217.359421 940.724548,217.427673 
	C937.945068,232.495544 935.165588,247.563416 932.470032,262.176239 
	C929.313721,261.891541 926.972900,261.680389 924.632080,261.469269 
z"/>
<path fill="#030303" opacity="1.000000" stroke="none" 
	d="
M111.002502,261.131653 
	C89.626183,261.188446 68.249863,261.245239 46.624931,260.891296 
	C48.185070,258.926697 49.993816,257.372864 51.802563,255.819031 
	C51.802563,255.819031 51.980141,255.980530 52.251663,255.944107 
	C54.288136,253.269333 56.053089,250.630966 57.949921,247.627045 
	C58.520641,245.022552 58.959492,242.783630 59.398346,240.544708 
	C59.476601,239.601974 59.554859,238.659241 60.023659,237.144196 
	C60.886093,234.675339 61.767708,232.779343 61.770229,230.882172 
	C61.841827,177.034302 61.848862,123.186256 61.733505,69.338531 
	C61.728962,67.218460 60.418793,65.101181 59.716980,62.982605 
	C59.632774,62.341938 59.548569,61.701267 59.661087,60.346825 
	C59.024071,54.370663 58.100849,49.151806 53.169590,45.882435 
	C53.169590,45.882435 53.078651,45.904106 53.128849,45.520512 
	C51.732632,43.613266 50.286213,42.089615 48.373104,40.074348 
	C92.592392,40.074348 136.214340,40.074348 180.874634,40.074348 
	C177.475952,47.229652 174.544510,53.823895 171.239258,60.225117 
	C168.632645,65.273285 165.565796,70.083809 162.703369,74.999878 
	C162.646744,74.640305 162.590134,74.280724 162.737808,73.282127 
	C161.818222,65.442535 154.383865,60.351952 146.615540,61.463699 
	C130.172348,61.462967 113.729149,61.462234 96.504303,61.754219 
	C95.556664,62.510540 95.246391,62.973862 95.245468,63.437801 
	C95.208176,82.253891 95.178032,101.070099 95.230766,119.886047 
	C95.234436,121.193909 95.880356,122.499954 96.524269,124.923332 
	C98.466110,122.637894 99.707863,121.370872 100.728043,119.945297 
	C109.714279,107.388184 120.236343,105.538940 135.568970,109.254288 
	C148.159302,112.305138 159.948151,120.831863 174.057434,113.781822 
	C174.057434,115.402847 174.389191,116.517761 174.007111,117.270226 
	C169.127151,126.880890 162.600876,134.663620 151.739914,137.985397 
	C143.532913,140.495483 136.446854,137.026855 129.076874,134.580887 
	C122.179642,132.291840 115.337669,129.512482 108.239922,128.241821 
	C101.040581,126.952965 95.219406,131.151840 95.216980,136.399323 
	C95.202301,168.204071 94.827850,200.019760 95.581070,231.807922 
	C95.857132,243.458374 99.129784,254.912613 111.002502,261.131653 
z"/>
<path fill="#656565" opacity="1.000000" stroke="none" 
	d="
M924.814453,261.745911 
	C926.972900,261.680389 929.313721,261.891541 932.470032,262.176239 
	C935.165588,247.563416 937.945068,232.495544 940.724548,217.427673 
	C940.324707,217.359421 939.924866,217.291183 939.525024,217.222946 
	C936.245483,220.360229 933.072327,223.618607 929.666321,226.612076 
	C919.460815,235.581528 907.018066,238.846115 893.912781,239.471481 
	C882.443176,240.018829 870.924500,239.451523 859.432983,239.667542 
	C854.858032,239.753540 853.293579,238.050873 853.310364,233.518188 
	C853.432800,200.531433 853.368774,167.544022 853.381470,134.556808 
	C853.383606,129.047287 856.436157,125.922142 862.111755,125.120667 
	C870.757935,123.899719 878.383240,127.216248 886.168579,130.106262 
	C891.406189,132.050537 896.722534,134.726105 902.133667,135.078629 
	C916.931702,136.042709 925.332642,126.427849 932.076599,114.890289 
	C932.873596,113.526733 933.330811,111.964523 934.383362,109.447220 
	C919.111328,117.422905 906.307556,109.298256 893.081726,105.548080 
	C877.805908,101.216637 867.366882,105.581772 859.197693,116.417946 
	C858.047180,117.943947 857.466248,119.899323 856.621704,121.655975 
	C855.765198,121.061241 854.908630,120.466515 854.052063,119.871780 
	C853.827515,118.340652 853.412048,116.810074 853.407593,115.278313 
	C853.359924,98.784851 853.474182,82.290199 853.305847,65.798317 
	C853.265564,61.847706 854.786804,60.411938 858.543091,60.432568 
	C872.870422,60.511257 887.200867,60.330772 901.524902,60.565395 
	C910.525330,60.712822 913.673157,62.935711 921.034119,73.088959 
	C926.432739,62.050137 931.643188,51.396011 937.125122,40.186832 
	C893.338806,40.186832 850.831238,40.186832 807.102234,40.186832 
	C817.896973,49.187191 820.252319,60.348099 819.770569,72.913376 
	C818.290955,67.414909 817.082214,61.460930 815.742554,55.536556 
	C814.387634,49.545441 811.031006,45.029190 805.551636,42.114342 
	C804.627563,41.622730 803.894043,40.772652 801.943176,39.147255 
	C805.286865,38.903862 807.308655,38.629765 809.330627,38.628338 
	C846.325256,38.602245 883.320190,38.680557 920.314331,38.540165 
	C926.715332,38.515873 933.112915,37.594395 940.741882,36.989880 
	C933.753357,51.160194 927.096863,64.657440 920.215759,78.609962 
	C919.155151,77.432213 918.575806,77.091324 918.564026,76.731743 
	C918.235046,66.748901 911.578430,62.849033 903.127197,62.526497 
	C887.542480,61.931709 871.918762,62.356571 856.072754,62.356571 
	C856.072754,79.956093 856.072754,97.573448 856.072754,115.190811 
	C856.663574,115.610901 857.254395,116.030991 857.845154,116.451080 
	C858.530884,115.164642 858.985657,113.667366 859.937927,112.624237 
	C870.101135,101.491470 881.404480,99.992355 894.907898,104.092354 
	C901.724365,106.162010 908.401611,108.706406 915.254578,110.635437 
	C923.139832,112.855034 930.052368,110.827080 936.286255,103.747414 
	C936.559204,105.816238 937.128418,107.093712 936.793579,108.056854 
	C932.906799,119.236038 926.703369,128.700073 915.843140,134.231384 
	C906.986755,138.742142 898.128784,137.176926 889.326416,133.603760 
	C883.638306,131.294815 877.871765,129.140869 872.025635,127.277611 
	C869.553406,126.489662 866.772705,126.300652 864.156006,126.409630 
	C858.063904,126.663330 855.556702,129.460861 855.555420,135.507629 
	C855.548645,167.336380 855.638184,199.165604 855.458374,230.993332 
	C855.431763,235.710037 856.664246,237.424728 861.594666,237.272003 
	C873.082520,236.916153 884.597168,237.402023 896.083191,237.017395 
	C915.459656,236.368561 930.578979,228.216873 940.055481,210.786469 
	C940.449463,210.061813 940.867371,209.341537 941.361633,208.685104 
	C941.518127,208.477264 941.959534,208.484009 943.133667,208.138702 
	C943.228516,209.927765 943.616821,211.572189 943.349548,213.102081 
	C941.031494,226.369370 938.592529,239.615524 936.197571,252.869400 
	C935.754272,255.322922 935.247681,257.770844 934.946411,260.242828 
	C934.491211,263.977753 933.576782,266.587158 929.139526,263.722565 
	C927.906677,262.926666 926.385681,262.576935 924.814453,261.745911 
z"/>
<path fill="#606060" opacity="1.000000" stroke="none" 
	d="
M111.202438,261.309631 
	C99.129784,254.912613 95.857132,243.458374 95.581070,231.807922 
	C94.827850,200.019760 95.202301,168.204071 95.216980,136.399323 
	C95.219406,131.151840 101.040581,126.952965 108.239922,128.241821 
	C115.337669,129.512482 122.179642,132.291840 129.076874,134.580887 
	C136.446854,137.026855 143.532913,140.495483 151.739914,137.985397 
	C162.600876,134.663620 169.127151,126.880890 174.007111,117.270226 
	C174.389191,116.517761 174.057434,115.402847 174.057434,113.781822 
	C159.948151,120.831863 148.159302,112.305138 135.568970,109.254288 
	C120.236343,105.538940 109.714279,107.388184 100.728043,119.945297 
	C99.707863,121.370872 98.466110,122.637894 96.524269,124.923332 
	C95.880356,122.499954 95.234436,121.193909 95.230766,119.886047 
	C95.178032,101.070099 95.208176,82.253891 95.245468,63.437801 
	C95.246391,62.973862 95.556664,62.510540 96.081100,61.891739 
	C96.439545,80.918564 96.439545,100.100586 96.439545,120.177498 
	C98.265450,119.234673 98.983871,119.094032 99.316269,118.658661 
	C109.775513,104.959373 123.290375,102.835327 138.403503,108.375931 
	C144.150360,110.482765 150.071365,112.130798 155.954346,113.846130 
	C163.541779,116.058418 170.410843,114.948357 176.150940,109.100220 
	C176.565598,108.677750 177.227615,108.498062 178.938110,107.583199 
	C178.156769,110.530334 177.858902,112.530922 177.107803,114.343719 
	C172.439575,125.610367 165.608124,134.915207 153.589310,139.217361 
	C146.081390,141.904831 138.946259,140.096786 131.762619,137.452362 
	C124.323845,134.714035 116.727654,132.378616 109.118477,130.145935 
	C107.301956,129.612930 105.073242,129.845688 103.186157,130.324921 
	C99.227325,131.330322 96.498848,133.296448 96.531258,138.209824 
	C96.705864,164.675323 96.384544,191.146484 96.804169,217.606659 
	C96.945290,226.505753 98.495300,235.420578 99.900085,244.248856 
	C100.917763,250.644287 104.770149,255.385864 110.471481,258.587921 
	C112.362297,259.649872 112.299599,259.761505 111.202438,261.309631 
M175.442917,112.819603 
	C175.442917,112.819603 175.573608,112.450043 175.573608,112.450043 
	C175.573608,112.450043 175.244568,112.554581 175.442917,112.819603 
z"/>
<path fill="#676767" opacity="1.000000" stroke="none" 
	d="
M981.440674,68.194031 
	C982.320862,70.570831 983.586914,73.392944 983.593872,76.218155 
	C983.715393,125.494858 983.707947,174.771988 983.619568,224.048843 
	C983.614319,226.984100 982.690186,229.917725 981.901306,233.056000 
	C981.535400,229.629333 981.401611,225.998871 981.397217,222.368225 
	C981.334595,171.125748 981.289734,119.883263 981.440674,68.194031 
z"/>
<path fill="#636363" opacity="1.000000" stroke="none" 
	d="
M162.492645,75.219788 
	C165.565796,70.083809 168.632645,65.273285 171.239258,60.225117 
	C174.544510,53.823895 177.475952,47.229652 180.874634,40.074348 
	C136.214340,40.074348 92.592392,40.074348 48.373104,40.074348 
	C50.286213,42.089615 51.732632,43.613266 53.154495,45.481430 
	C50.206509,44.057922 47.283073,42.289898 44.359642,40.521873 
	C44.381439,40.131485 44.403240,39.741096 44.425037,39.350708 
	C46.376728,39.108334 48.328186,38.656742 50.280148,38.654545 
	C87.734840,38.612362 125.189857,38.692799 162.644119,38.558327 
	C169.397552,38.534077 176.147964,37.670734 184.350204,37.092545 
	C177.493286,51.103981 170.906464,64.563461 163.761200,79.164078 
	C162.922760,77.053139 162.602325,76.246414 162.492645,75.219788 
z"/>
<path fill="#676767" opacity="1.000000" stroke="none" 
	d="
M1017.728394,213.780075 
	C1017.130432,212.540802 1016.418823,210.862625 1016.414490,209.182617 
	C1016.344666,182.362061 1016.347656,155.541229 1016.395081,128.720566 
	C1016.399353,126.297638 1016.822449,123.875450 1017.204041,119.831520 
	C1020.434143,122.270538 1022.728149,123.694939 1024.656860,125.507904 
	C1039.402466,139.368912 1050.276978,156.043671 1058.666382,174.263458 
	C1063.947876,185.733276 1068.064819,197.739212 1072.465698,209.739044 
	C1070.171875,204.995270 1068.039551,200.047241 1066.074341,195.033813 
	C1057.175171,172.332169 1046.081665,150.918106 1029.449829,132.784348 
	C1026.344604,129.398666 1022.867188,126.354225 1019.561523,123.152290 
	C1019.022278,123.347069 1018.483032,123.541847 1017.943787,123.736618 
	C1017.943787,153.604523 1017.943787,183.472427 1017.728394,213.780075 
z"/>
<path fill="#636363" opacity="1.000000" stroke="none" 
	d="
M59.526695,63.332275 
	C60.418793,65.101181 61.728962,67.218460 61.733505,69.338531 
	C61.848862,123.186256 61.841827,177.034302 61.770229,230.882172 
	C61.767708,232.779343 60.886093,234.675339 60.094654,236.796310 
	C59.957607,232.252426 60.295258,227.484238 60.298645,222.715805 
	C60.333000,174.342300 60.339108,125.968719 60.265579,77.595284 
	C60.258530,72.957039 59.660233,68.319702 59.526695,63.332275 
z"/>
<path fill="#676767" opacity="1.000000" stroke="none" 
	d="
M1108.902100,56.756264 
	C1102.215454,53.247681 1095.942993,48.316715 1088.817505,45.815994 
	C1080.190674,42.788368 1070.875366,40.424824 1061.800293,40.210243 
	C1032.221191,39.510818 1002.615723,39.919018 973.020386,39.914051 
	C972.244934,39.913921 971.469421,40.063240 971.352722,40.075226 
	C974.160095,44.874470 976.970886,49.679527 979.557861,54.723152 
	C975.087524,49.747284 970.841125,44.532848 966.458618,39.151321 
	C967.223755,39.048180 968.888489,38.629448 970.553528,38.628113 
	C1001.654480,38.603161 1032.756470,38.482761 1063.855957,38.704254 
	C1079.021729,38.812260 1092.909180,43.349014 1105.051636,52.661106 
	C1106.470825,53.749565 1107.648438,55.153217 1108.902100,56.756264 
z"/>
<path fill="#676767" opacity="1.000000" stroke="none" 
	d="
M1127.762451,252.821533 
	C1124.591431,248.303253 1120.665894,243.759995 1118.441284,238.497696 
	C1110.701172,220.188843 1103.975708,201.444748 1096.007690,183.241104 
	C1091.618286,173.212952 1085.517822,163.933716 1080.320801,153.968811 
	C1084.542969,159.939453 1089.037109,166.036530 1092.647583,172.618301 
	C1103.584106,192.555054 1111.473145,213.798935 1119.058105,235.185272 
	C1121.197998,241.218887 1124.836548,246.720963 1127.762451,252.821533 
z"/>
<path fill="#676767" opacity="1.000000" stroke="none" 
	d="
M1080.156006,152.548370 
	C1076.854126,149.094147 1073.596558,145.280365 1069.508057,140.493896 
	C1074.195679,139.582443 1077.930542,138.782532 1081.691895,138.137665 
	C1097.680542,135.396515 1109.594116,126.926895 1116.909546,112.471985 
	C1119.193481,107.958969 1120.335083,102.867783 1122.333008,97.931969 
	C1122.713257,107.044212 1118.578613,114.719482 1113.135742,121.623680 
	C1103.574341,133.751968 1090.766235,139.851395 1075.364990,140.568695 
	C1074.716919,140.598877 1074.075317,140.768097 1072.801514,140.974518 
	C1075.398804,144.911240 1077.799438,148.550018 1080.156006,152.548370 
z"/>
<path fill="#656565" opacity="1.000000" stroke="none" 
	d="
M819.239380,227.856812 
	C820.699219,240.912338 817.640808,252.466934 806.039795,260.906921 
	C805.050232,261.261902 804.104980,261.261902 803.159790,261.261902 
	C803.091980,260.930603 803.024170,260.599274 802.956360,260.267975 
	C803.685059,259.738525 804.360962,259.108307 805.150513,258.695099 
	C813.152649,254.507126 816.003662,247.156906 817.344543,238.888046 
	C817.927307,235.294189 818.419983,231.685699 819.239380,227.856812 
z"/>
<path fill="#676767" opacity="1.000000" stroke="none" 
	d="
M1032.236206,261.400574 
	C1028.377319,257.271667 1023.375977,253.900238 1021.461792,249.256332 
	C1018.837769,242.890121 1018.556335,235.558334 1017.524170,228.331360 
	C1018.957703,233.610092 1020.084167,239.209885 1021.332764,244.782303 
	C1022.747559,251.096313 1026.519897,255.616974 1032.126587,258.747559 
	C1033.953125,259.767395 1033.882080,259.894653 1032.236206,261.400574 
z"/>
<path fill="#676767" opacity="1.000000" stroke="none" 
	d="
M1123.050293,95.661697 
	C1122.427002,91.943214 1122.172485,87.880424 1121.617676,83.859077 
	C1120.371094,74.825493 1116.116089,67.103851 1110.844849,59.519489 
	C1114.206299,64.068062 1118.811157,68.562935 1120.545776,73.977371 
	C1122.699341,80.699326 1122.478271,88.182068 1123.050293,95.661697 
z"/>
<path fill="#636363" opacity="1.000000" stroke="none" 
	d="
M146.785370,61.769211 
	C154.383865,60.351952 161.818222,65.442535 162.746414,73.008698 
	C160.057663,65.873764 153.809402,63.556080 146.785370,61.769211 
z"/>
<path fill="#676767" opacity="1.000000" stroke="none" 
	d="
M978.906372,246.171204 
	C977.017151,249.857803 974.987549,253.812973 972.518555,257.471558 
	C971.591919,258.844604 969.644348,259.528625 968.077820,260.867188 
	C967.159302,261.118774 966.325073,261.029968 965.490906,260.941162 
	C971.861450,257.561707 975.742920,252.414642 978.906372,246.171204 
z"/>
<path fill="#676767" opacity="1.000000" stroke="none" 
	d="
M1078.425171,235.206345 
	C1081.460449,239.020020 1081.437866,243.408966 1078.876099,248.075409 
	C1078.468994,244.056641 1078.357178,239.857086 1078.425171,235.206345 
z"/>
<path fill="#636363" opacity="1.000000" stroke="none" 
	d="
M53.113739,46.247978 
	C58.100849,49.151806 59.024071,54.370663 59.662605,60.023270 
	C57.330906,55.813499 55.194401,51.213509 53.113739,46.247978 
z"/>
<path fill="#606060" opacity="1.000000" stroke="none" 
	d="
M57.818047,247.992615 
	C56.053089,250.630966 54.288136,253.269333 52.171097,255.855164 
	C53.307194,253.290527 54.795380,250.778412 56.808258,248.120682 
	C57.332947,247.975052 57.818043,247.992615 57.818047,247.992615 
z"/>
<path fill="#676767" opacity="1.000000" stroke="none" 
	d="
M1134.212158,261.427032 
	C1132.701050,259.654419 1131.404541,258.067017 1130.171875,256.137024 
	C1132.401123,257.147095 1134.566772,258.499756 1137.325439,260.222931 
	C1135.959106,260.877838 1135.192993,261.245026 1134.212158,261.427032 
z"/>
<path fill="#676767" opacity="1.000000" stroke="none" 
	d="
M980.984192,237.253632 
	C980.911194,239.351715 980.545288,241.679031 979.866882,244.131531 
	C979.933350,241.998764 980.312317,239.740829 980.984192,237.253632 
z"/>
<path fill="#676767" opacity="1.000000" stroke="none" 
	d="
M1077.998291,250.193939 
	C1077.165039,252.403732 1076.025513,254.779343 1074.541992,257.149170 
	C1075.362671,254.882202 1076.527344,252.620956 1077.998291,250.193939 
z"/>
<path fill="#676767" opacity="1.000000" stroke="none" 
	d="
M979.497253,57.099140 
	C980.376587,58.964890 981.084839,61.196110 981.562012,63.695503 
	C980.662720,61.797321 979.994446,59.630966 979.497253,57.099140 
z"/>
<path fill="#606060" opacity="1.000000" stroke="none" 
	d="
M51.450455,255.837326 
	C49.993816,257.372864 48.185070,258.926697 46.169792,260.759766 
	C45.765675,260.447968 45.277573,259.423035 45.414383,259.331421 
	C47.258236,258.096954 49.189064,256.992371 51.450455,255.837326 
z"/>
<path fill="#636363" opacity="1.000000" stroke="none" 
	d="
M57.949917,247.627045 
	C57.818043,247.992615 57.332947,247.975052 57.090797,247.958405 
	C57.502686,245.596832 58.156727,243.251907 59.104557,240.725830 
	C58.959492,242.783630 58.520641,245.022552 57.949917,247.627045 
z"/>
<path fill="#676767" opacity="1.000000" stroke="none" 
	d="
M1076.452148,226.101257 
	C1077.330566,227.657852 1078.042358,229.570923 1078.520386,231.725464 
	C1077.619507,230.130539 1076.952515,228.294113 1076.452148,226.101257 
z"/>
<path fill="#676767" opacity="1.000000" stroke="none" 
	d="
M1074.498535,219.067902 
	C1075.367554,220.328598 1076.059692,221.923019 1076.526123,223.741623 
	C1075.640869,222.444427 1074.981201,220.923019 1074.498535,219.067902 
z"/>
<path fill="#676767" opacity="1.000000" stroke="none" 
	d="
M1072.470215,212.076187 
	C1073.357056,213.324203 1074.078003,214.910080 1074.579712,216.727585 
	C1073.675171,215.444153 1072.989746,213.929092 1072.470215,212.076187 
z"/>
<path fill="#676767" opacity="1.000000" stroke="none" 
	d="
M1073.808716,257.165222 
	C1073.274780,258.131409 1072.408691,259.061981 1071.201416,259.933350 
	C1071.732300,258.959290 1072.604492,258.044464 1073.808716,257.165222 
z"/>
<path fill="#676767" opacity="1.000000" stroke="none" 
	d="
M1130.192505,255.438507 
	C1129.389771,255.159012 1128.578613,254.553284 1127.794434,253.598007 
	C1128.609131,253.869736 1129.396606,254.491013 1130.192505,255.438507 
z"/>
<path fill="#676767" opacity="1.000000" stroke="none" 
	d="
M1110.871948,58.789612 
	C1110.161499,58.677662 1109.488770,58.234211 1108.855957,57.462296 
	C1109.567139,57.575256 1110.238525,58.016682 1110.871948,58.789612 
z"/>
<path fill="#F9F9F9" opacity="1.000000" stroke="none" 
	d="
M478.604126,118.759369 
	C461.390991,119.452782 447.004974,109.073929 439.670807,91.129761 
	C436.145050,82.503479 435.102509,73.485519 435.497253,64.292137 
	C435.550415,63.054291 437.338440,60.812645 438.244537,60.851852 
	C451.308380,61.417168 464.587616,61.055489 477.353241,63.415249 
	C492.612976,66.236038 502.441223,79.754219 502.274109,94.067802 
	C502.117279,107.501305 493.911194,116.199364 478.604126,118.759369 
z"/>
<path fill="#F9F9F9" opacity="1.000000" stroke="none" 
	d="
M1055.101318,61.749512 
	C1065.064453,64.344231 1073.579468,68.435226 1079.353516,76.935440 
	C1086.451538,87.384903 1086.270752,100.583542 1078.812866,109.889374 
	C1072.062134,118.312752 1057.833862,121.407906 1046.820068,116.927422 
	C1031.891357,110.854347 1023.423035,99.308357 1019.833252,84.117004 
	C1018.322083,77.722389 1018.250488,70.984627 1017.571289,64.398018 
	C1017.334229,62.098377 1017.945496,60.494904 1020.772827,60.592381 
	C1032.077026,60.982105 1043.383911,61.299480 1055.101318,61.749512 
z"/>
<path fill="#FEFEFE" opacity="1.000000" stroke="none" 
	d="
M253.456024,173.577026 
	C253.490921,173.227982 253.525818,172.878937 253.954422,172.071228 
	C254.858917,170.419479 255.556976,169.270386 255.849442,168.025970 
	C257.474182,161.112915 258.903870,154.153259 260.580811,147.253418 
	C263.869659,133.721130 267.263092,120.214195 270.641724,106.703880 
	C272.410126,99.632507 274.238770,92.576195 276.040192,85.513084 
	C276.501465,85.512779 276.962769,85.512482 277.424042,85.512177 
	C286.144714,117.448105 294.865356,149.384033 303.679962,181.663940 
	C286.095398,181.663940 269.307465,181.663940 252.933395,181.663940 
	C253.126389,178.677628 253.291214,176.127335 253.456024,173.577026 
z"/>
<path fill="#9F9F9F" opacity="1.000000" stroke="none" 
	d="
M253.140717,173.753235 
	C253.291214,176.127335 253.126389,178.677628 252.933395,181.663940 
	C269.307465,181.663940 286.095398,181.663940 303.679962,181.663940 
	C294.865356,149.384033 286.144714,117.448105 277.424042,85.512177 
	C276.962769,85.512482 276.501465,85.512779 276.040192,85.513084 
	C274.238770,92.576195 272.410126,99.632507 270.641724,106.703880 
	C267.263092,120.214195 263.869659,133.721130 260.580811,147.253418 
	C258.903870,154.153259 257.474182,161.112915 255.849442,168.025970 
	C255.556976,169.270386 254.858917,170.419479 254.027344,171.818024 
	C255.154419,164.928207 256.401794,157.784927 258.087585,150.746658 
	C263.198059,129.409973 268.461700,108.109833 273.714600,86.807526 
	C274.338440,84.277695 275.265228,81.822578 277.324738,79.261833 
	C278.728912,83.867149 280.253754,88.439636 281.516968,93.083313 
	C287.886627,116.499084 294.189880,139.932938 300.512146,163.361588 
	C301.985168,168.820190 303.303680,174.325439 304.956329,179.728760 
	C305.967316,183.034317 304.650574,184.019897 301.663147,184.018646 
	C285.996674,184.012161 270.330170,183.991699 254.663849,184.039368 
	C251.873093,184.047852 250.513077,183.010086 251.170624,180.135239 
	C251.647644,178.049576 252.268616,175.996857 253.140717,173.753235 
z"/>
<path fill="#030303" opacity="1.000000" stroke="none" 
	d="
M175.343750,112.687088 
	C175.244568,112.554581 175.573608,112.450043 175.573608,112.450043 
	C175.573608,112.450043 175.442917,112.819603 175.343750,112.687088 
z"/>
</svg>