<svg version="1.1" id="Layer_1" xmlns="http://www.w3.org/2000/svg" xmlns:xlink="http://www.w3.org/1999/xlink" x="0px" y="0px"
	 width="100%" viewBox="0 0 1384 288" enable-background="new 0 0 1384 288" xml:space="preserve">

<path fill="currentColor" opacity="1.000000" stroke="none" 
	d="
M691.038452,97.928864 
	C700.263916,79.313644 709.234680,60.987648 718.413269,42.766350 
	C719.212097,41.180515 721.364868,39.250088 722.914307,39.227425 
	C738.739380,38.995934 754.569641,39.124428 770.398438,39.173950 
	C770.681335,39.174835 770.963501,39.442837 771.244385,39.591412 
	C771.269226,39.894421 771.411072,40.402187 771.305664,40.460136 
	C762.499207,45.302250 758.732178,53.247025 758.760437,62.768196 
	C758.813354,80.569962 759.112915,98.385818 759.930725,116.167252 
	C761.430908,148.785217 763.322449,181.385834 765.190796,213.985657 
	C765.609497,221.292557 766.144043,228.649857 767.445435,235.835388 
	C769.283569,245.985184 772.435852,255.642654 783.078979,260.864441 
	C761.011414,260.864441 738.943848,260.864441 718.139587,260.864441 
	C721.232422,256.541107 725.558044,252.116592 727.845093,246.812958 
	C729.879700,242.094849 730.358887,236.393860 730.292480,231.142258 
	C730.115784,217.158981 729.413635,203.176697 728.669495,189.207413 
	C727.038757,158.596756 725.261841,127.993866 723.507263,97.389946 
	C723.407227,95.645737 722.971191,93.920784 721.484497,91.975235 
	C704.803406,125.933617 688.122314,159.891998 670.615356,195.531616 
	C652.477722,160.686172 636.241211,126.240448 618.544006,91.577332 
	C618.076050,93.237793 617.609253,94.194672 617.559021,95.172935 
	C615.390076,137.433426 613.219849,179.693954 611.171143,221.960373 
	C610.921814,227.104736 611.176880,232.292801 611.499451,237.441727 
	C612.211609,248.807434 615.502380,254.328140 625.595947,260.845276 
	C604.873596,260.845276 584.995667,260.845276 563.770630,260.845276 
	C581.731384,251.956650 581.394531,235.493423 582.675171,220.368942 
	C584.684509,196.639725 585.552795,172.812378 586.814636,149.021805 
	C588.041138,125.896355 589.334534,102.771729 590.212463,79.632095 
	C590.488708,72.350998 589.907104,64.974190 589.010010,57.728874 
	C588.043945,49.926857 583.848633,43.884342 576.803223,39.461479 
	C578.194153,39.328079 579.584839,39.081150 580.976013,39.078671 
	C596.472717,39.051079 611.970398,39.146667 627.465637,38.995247 
	C630.910217,38.961582 632.721558,39.996655 634.316895,43.249107 
	C647.251770,69.619980 660.433777,95.869675 673.562439,122.145287 
	C674.254639,123.530640 675.145813,124.816574 676.640686,127.310600 
	C681.747314,116.856956 686.293152,107.551445 691.038452,97.928864 
z"/>
<path fill="currentColor" opacity="1.000000" stroke="none" 
	d="
M490.831390,213.306610 
	C479.603699,178.589371 464.749237,146.502029 435.997498,121.092255 
	C435.720398,123.805771 435.429077,125.327858 435.429596,126.849838 
	C435.440918,159.173859 435.366455,191.498825 435.623291,223.821091 
	C435.674469,230.264069 436.590820,236.782990 437.872620,243.112091 
	C439.420685,250.756012 443.666504,256.776733 450.996155,260.803009 
	C428.809967,260.803009 406.623749,260.803009 383.040375,260.803009 
	C396.833496,254.186172 399.036621,242.508423 399.398987,230.231827 
	C399.919891,212.585632 400.094727,194.925674 400.165222,177.270569 
	C400.281616,148.112549 400.270569,118.953445 400.149017,89.795479 
	C400.115021,81.640594 399.721863,73.471748 399.108521,65.338341 
	C398.183319,53.069435 394.503021,46.970863 383.880737,39.721275 
	C385.653809,39.433170 386.795441,39.085503 387.937012,39.085804 
	C419.594360,39.094189 451.262512,38.655575 482.904724,39.367039 
	C500.286530,39.757862 516.271606,45.377102 528.433777,58.764767 
	C539.643066,71.103622 543.459656,85.747513 539.610474,101.819870 
	C535.058167,120.828537 523.119934,133.267776 503.938324,138.191956 
	C499.502472,139.330673 494.939423,139.973846 489.721802,140.982971 
	C492.024475,144.278976 494.188324,147.299408 496.273560,150.373199 
	C513.184692,175.301819 525.133118,202.588623 534.491394,231.089462 
	C538.675232,243.831360 542.499084,249.989716 553.633850,260.873505 
	C531.559143,260.873505 510.010315,260.873505 487.496399,260.873505 
	C499.757874,251.809448 497.377319,240.131897 495.026978,228.586105 
	C494.002075,223.551392 492.350311,218.644287 490.831390,213.306610 
M479.035858,118.699295 
	C493.911194,116.199364 502.117279,107.501305 502.274109,94.067802 
	C502.441223,79.754219 492.612976,66.236038 477.353241,63.415249 
	C464.587616,61.055489 451.308380,61.417168 438.244537,60.851852 
	C437.338440,60.812645 435.550415,63.054291 435.497253,64.292137 
	C435.102509,73.485519 436.145050,82.503479 439.670807,91.129761 
	C447.004974,109.073929 461.390991,119.452782 479.035858,118.699295 
z"/>
<path fill="currentColor" opacity="1.000000" stroke="none" 
	d="
M1032.002441,261.210388 
	C1010.975952,261.255463 989.949524,261.300537 968.542603,260.936188 
	C969.644348,259.528625 971.591919,258.844604 972.518555,257.471558 
	C974.987549,253.812973 977.017151,249.857803 979.221436,246.020538 
	C979.275818,245.624481 979.330261,245.228455 979.781982,244.419388 
	C980.545288,241.679031 980.911194,239.351715 981.277100,237.024384 
	C981.346191,236.018280 981.415283,235.012177 981.838989,233.429092 
	C982.690186,229.917725 983.614319,226.984100 983.619568,224.048843 
	C983.707947,174.771988 983.715393,125.494858 983.593872,76.218155 
	C983.586914,73.392944 982.320862,70.570831 981.640869,67.747269 
	C981.539368,66.739510 981.437866,65.731758 981.564697,64.075668 
	C981.084839,61.196110 980.376587,58.964890 979.668396,56.733665 
	C979.570618,56.343918 979.472900,55.954170 979.578369,55.024506 
	C976.970886,49.679527 974.160095,44.874470 971.352722,40.075226 
	C971.469421,40.063240 972.244934,39.913921 973.020386,39.914051 
	C1002.615723,39.919018 1032.221191,39.510818 1061.800293,40.210243 
	C1070.875366,40.424824 1080.190674,42.788368 1088.817505,45.815994 
	C1095.942993,48.316715 1102.215454,53.247681 1108.865967,57.101772 
	C1108.865967,57.101765 1108.959106,57.044872 1108.887695,57.417816 
	C1109.488770,58.234211 1110.161499,58.677662 1110.834106,59.121124 
	C1110.834106,59.121136 1110.920166,59.082386 1110.867432,59.478081 
	C1116.116089,67.103851 1120.371094,74.825493 1121.617676,83.859077 
	C1122.172485,87.880424 1122.427002,91.943214 1122.817993,95.987183 
	C1122.808960,96.397545 1122.799805,96.807915 1122.395020,97.629768 
	C1120.335083,102.867783 1119.193481,107.958969 1116.909546,112.471985 
	C1109.594116,126.926895 1097.680542,135.396515 1081.691895,138.137665 
	C1077.930542,138.782532 1074.195679,139.582443 1069.508057,140.493896 
	C1073.596558,145.280365 1076.854126,149.094147 1080.111694,152.907928 
	C1080.111694,152.907928 1080.338623,153.237350 1080.263672,153.777100 
	C1085.517822,163.933716 1091.618286,173.212952 1096.007690,183.241104 
	C1103.975708,201.444748 1110.701172,220.188843 1118.441284,238.497696 
	C1120.665894,243.759995 1124.591431,248.303253 1127.737061,253.176224 
	C1127.737061,253.176224 1127.820801,253.163818 1127.794189,253.555695 
	C1128.578613,254.553284 1129.389771,255.159012 1130.200806,255.764740 
	C1130.200806,255.764755 1130.087280,255.933014 1130.097656,256.206329 
	C1131.404541,258.067017 1132.701050,259.654419 1133.997681,261.241821 
	C1113.775513,261.278015 1093.553345,261.320251 1073.331177,261.328125 
	C1072.537354,261.328461 1071.743530,261.000671 1071.246216,260.409180 
	C1072.408691,259.061981 1073.274780,258.131409 1074.140747,257.200806 
	C1074.140747,257.200806 1074.120239,257.122864 1074.503052,257.138916 
	C1076.025513,254.779343 1077.165039,252.403732 1078.304688,250.028152 
	C1078.348145,249.631302 1078.391479,249.234421 1078.803223,248.366089 
	C1081.437866,243.408966 1081.460449,239.020020 1078.604980,234.755157 
	C1078.506592,234.059875 1078.408325,233.364609 1078.531982,232.076660 
	C1078.042358,229.570923 1077.330566,227.657852 1076.618896,225.744797 
	C1076.525635,225.353073 1076.432495,224.961334 1076.545654,224.043518 
	C1076.059692,221.923019 1075.367554,220.328598 1074.675415,218.734192 
	C1074.582275,218.343506 1074.489258,217.952805 1074.597412,217.029022 
	C1074.078003,214.910080 1073.357056,213.324203 1072.636230,211.738327 
	C1072.522583,211.350967 1072.408936,210.963593 1072.499756,210.040436 
	C1068.064819,197.739212 1063.947876,185.733276 1058.666382,174.263458 
	C1050.276978,156.043671 1039.402466,139.368912 1024.656860,125.507904 
	C1022.728149,123.694939 1020.434143,122.270538 1017.204041,119.831520 
	C1016.822449,123.875450 1016.399353,126.297638 1016.395081,128.720566 
	C1016.347656,155.541229 1016.344666,182.362061 1016.414490,209.182617 
	C1016.418823,210.862625 1017.130432,212.540802 1017.513062,214.219818 
	C1017.607239,218.510895 1017.701355,222.801971 1017.533203,227.866699 
	C1018.556335,235.558334 1018.837769,242.890121 1021.461792,249.256332 
	C1023.375977,253.900238 1028.377319,257.271667 1032.002441,261.210388 
M1054.689819,61.643620 
	C1043.383911,61.299480 1032.077026,60.982105 1020.772827,60.592381 
	C1017.945496,60.494904 1017.334229,62.098377 1017.571289,64.398018 
	C1018.250488,70.984627 1018.322083,77.722389 1019.833252,84.117004 
	C1023.423035,99.308357 1031.891357,110.854347 1046.820068,116.927422 
	C1057.833862,121.407906 1072.062134,118.312752 1078.812866,109.889374 
	C1086.270752,100.583542 1086.451538,87.384903 1079.353516,76.935440 
	C1073.579468,68.435226 1065.064453,64.344231 1054.689819,61.643620 
z"/>
<path fill="currentColor" opacity="1.000000" stroke="none" 
	d="
M316.144348,226.251678 
	C314.782593,220.494400 313.651764,215.113693 312.036469,209.882568 
	C311.641449,208.603226 309.668091,206.941162 308.406647,206.929398 
	C288.244598,206.741043 268.079742,206.735718 247.917709,206.922424 
	C246.639709,206.934265 244.483444,208.697205 244.252869,209.929413 
	C242.420181,219.722443 240.572891,229.542526 239.492920,239.437561 
	C238.562912,247.958298 240.684708,255.663254 248.850861,260.889496 
	C229.782364,260.889496 210.713867,260.889496 190.210373,260.889496 
	C204.725266,253.680069 207.624496,240.471863 211.089951,227.961121 
	C218.630783,200.737793 225.796997,173.406296 232.755493,146.027313 
	C239.631775,118.971733 246.284607,91.854218 252.562714,64.654755 
	C254.566772,55.972351 254.850235,46.987759 246.443420,39.652447 
	C248.380646,39.392380 249.595459,39.089737 250.810898,39.087254 
	C266.641968,39.054913 282.473816,39.143261 298.303772,39.004852 
	C301.870514,38.973671 303.422974,39.974041 304.400909,43.723923 
	C310.649689,67.685120 317.305237,91.539871 323.740112,115.453011 
	C330.129639,139.197571 336.282959,163.006409 342.792542,186.717697 
	C347.847717,205.131439 353.024780,223.521133 358.674347,241.758362 
	C361.543701,251.020859 364.253662,253.589630 374.106140,260.879211 
	C351.650574,260.879211 329.876343,260.879211 307.046570,260.879211 
	C320.867249,251.797714 317.643616,239.029404 316.144348,226.251678 
M252.825409,173.929443 
	C252.268616,175.996857 251.647644,178.049576 251.170624,180.135239 
	C250.513077,183.010086 251.873093,184.047852 254.663849,184.039368 
	C270.330170,183.991699 285.996674,184.012161 301.663147,184.018646 
	C304.650574,184.019897 305.967316,183.034317 304.956329,179.728760 
	C303.303680,174.325439 301.985168,168.820190 300.512146,163.361588 
	C294.189880,139.932938 287.886627,116.499084 281.516968,93.083313 
	C280.253754,88.439636 278.728912,83.867149 277.324738,79.261833 
	C275.265228,81.822578 274.338440,84.277695 273.714600,86.807526 
	C268.461700,108.109833 263.198059,129.409973 258.087585,150.746658 
	C256.401794,157.784927 255.154419,164.928207 253.560715,172.529892 
	C253.525818,172.878937 253.490921,173.227982 252.825409,173.929443 
z"/>
<path fill="currentColor" opacity="1.000000" stroke="none" 
	d="
M1159.498291,204.382690 
	C1161.610718,197.063034 1163.638062,190.141174 1165.665405,183.219315 
	C1168.375610,194.093903 1171.539185,204.258148 1177.489990,213.401016 
	C1187.493530,228.770432 1201.586060,237.718750 1219.904419,238.598755 
	C1231.962402,239.178024 1242.734863,235.128021 1248.958496,223.828094 
	C1255.439453,212.060577 1254.579712,200.074768 1247.741211,188.734116 
	C1241.098633,177.718521 1230.399780,171.103668 1219.886597,164.349304 
	C1206.485718,155.739761 1192.575562,147.769287 1179.979614,138.097733 
	C1162.112305,124.378754 1153.857666,105.773109 1156.980835,82.914116 
	C1159.712402,62.921684 1170.740234,49.099072 1189.058350,41.161415 
	C1204.755249,34.359684 1221.074341,34.169315 1237.513916,37.976276 
	C1244.791992,39.661667 1251.926392,41.962883 1259.191895,43.709805 
	C1261.804443,44.337936 1264.610596,44.160324 1268.424927,44.427174 
	C1269.139038,61.041771 1269.887085,78.447678 1270.635254,95.853584 
	C1270.162964,95.957573 1269.690796,96.061562 1269.218628,96.165550 
	C1266.887329,92.054886 1264.851929,87.739250 1262.171997,83.870018 
	C1252.024292,69.219666 1238.834106,59.410946 1220.258545,58.873028 
	C1209.184204,58.552334 1199.496704,62.002831 1194.235474,72.244240 
	C1188.806030,82.812996 1190.068115,93.581795 1196.845337,103.409393 
	C1203.838013,113.549103 1214.242432,119.602135 1224.368286,126.029305 
	C1237.808960,134.560638 1251.729492,142.532074 1264.249390,152.278488 
	C1292.203491,174.039764 1293.872437,212.253876 1276.441040,237.402939 
	C1266.548340,251.675476 1252.193726,259.645630 1235.585449,262.899841 
	C1210.748901,267.766296 1187.285522,263.814789 1166.061523,249.282379 
	C1151.352661,239.210999 1150.207275,235.556427 1155.959839,217.264099 
	C1157.254272,213.147964 1158.269409,208.944016 1159.498291,204.382690 
z"/>
<path fill="currentColor" opacity="1.000000" stroke="none" 
	d="
M924.632080,261.469269 
	C885.398010,261.428925 846.163879,261.388611 806.506958,260.950134 
	C817.640808,252.466934 820.699219,240.912338 819.525269,227.629761 
	C819.529053,176.501999 819.532837,125.374237 819.760315,73.358658 
	C820.252319,60.348099 817.896973,49.187191 807.102234,40.186832 
	C850.831238,40.186832 893.338806,40.186832 937.125122,40.186832 
	C931.643188,51.396011 926.432739,62.050137 921.034119,73.088959 
	C913.673157,62.935711 910.525330,60.712822 901.524902,60.565395 
	C887.200867,60.330772 872.870422,60.511257 858.543091,60.432568 
	C854.786804,60.411938 853.265564,61.847706 853.305847,65.798317 
	C853.474182,82.290199 853.359924,98.784851 853.407593,115.278313 
	C853.412048,116.810074 853.827515,118.340652 854.052063,119.871780 
	C854.908630,120.466515 855.765198,121.061241 856.621704,121.655975 
	C857.466248,119.899323 858.047180,117.943947 859.197693,116.417946 
	C867.366882,105.581772 877.805908,101.216637 893.081726,105.548080 
	C906.307556,109.298256 919.111328,117.422905 934.383362,109.447220 
	C933.330811,111.964523 932.873596,113.526733 932.076599,114.890289 
	C925.332642,126.427849 916.931702,136.042709 902.133667,135.078629 
	C896.722534,134.726105 891.406189,132.050537 886.168579,130.106262 
	C878.383240,127.216248 870.757935,123.899719 862.111755,125.120667 
	C856.436157,125.922142 853.383606,129.047287 853.381470,134.556808 
	C853.368774,167.544022 853.432800,200.531433 853.310364,233.518188 
	C853.293579,238.050873 854.858032,239.753540 859.432983,239.667542 
	C870.924500,239.451523 882.443176,240.018829 893.912781,239.471481 
	C907.018066,238.846115 919.460815,235.581528 929.666321,226.612076 
	C933.072327,223.618607 936.245483,220.360229 939.525024,217.222946 
	C939.924866,217.291183 940.324707,217.359421 940.724548,217.427673 
	C937.945068,232.495544 935.165588,247.563416 932.470032,262.176239 
	C929.313721,261.891541 926.972900,261.680389 924.632080,261.469269 
z"/>
<path fill="currentColor" opacity="1.000000" stroke="none" 
	d="
M111.002502,261.131653 
	C89.626183,261.188446 68.249863,261.245239 46.624931,260.891296 
	C48.185070,258.926697 49.993816,257.372864 51.802563,255.819031 
	C51.802563,255.819031 51.980141,255.980530 52.251663,255.944107 
	C54.288136,253.269333 56.053089,250.630966 57.949921,247.627045 
	C58.520641,245.022552 58.959492,242.783630 59.398346,240.544708 
	C59.476601,239.601974 59.554859,238.659241 60.023659,237.144196 
	C60.886093,234.675339 61.767708,232.779343 61.770229,230.882172 
	C61.841827,177.034302 61.848862,123.186256 61.733505,69.338531 
	C61.728962,67.218460 60.418793,65.101181 59.716980,62.982605 
	C59.632774,62.341938 59.548569,61.701267 59.661087,60.346825 
	C59.024071,54.370663 58.100849,49.151806 53.169590,45.882435 
	C53.169590,45.882435 53.078651,45.904106 53.128849,45.520512 
	C51.732632,43.613266 50.286213,42.089615 48.373104,40.074348 
	C92.592392,40.074348 136.214340,40.074348 180.874634,40.074348 
	C177.475952,47.229652 174.544510,53.823895 171.239258,60.225117 
	C168.632645,65.273285 165.565796,70.083809 162.703369,74.999878 
	C162.646744,74.640305 162.590134,74.280724 162.737808,73.282127 
	C161.818222,65.442535 154.383865,60.351952 146.615540,61.463699 
	C130.172348,61.462967 113.729149,61.462234 96.504303,61.754219 
	C95.556664,62.510540 95.246391,62.973862 95.245468,63.437801 
	C95.208176,82.253891 95.178032,101.070099 95.230766,119.886047 
	C95.234436,121.193909 95.880356,122.499954 96.524269,124.923332 
	C98.466110,122.637894 99.707863,121.370872 100.728043,119.945297 
	C109.714279,107.388184 120.236343,105.538940 135.568970,109.254288 
	C148.159302,112.305138 159.948151,120.831863 174.057434,113.781822 
	C174.057434,115.402847 174.389191,116.517761 174.007111,117.270226 
	C169.127151,126.880890 162.600876,134.663620 151.739914,137.985397 
	C143.532913,140.495483 136.446854,137.026855 129.076874,134.580887 
	C122.179642,132.291840 115.337669,129.512482 108.239922,128.241821 
	C101.040581,126.952965 95.219406,131.151840 95.216980,136.399323 
	C95.202301,168.204071 94.827850,200.019760 95.581070,231.807922 
	C95.857132,243.458374 99.129784,254.912613 111.002502,261.131653 
z"/>

































<path fill="currentColor" opacity="1.000000" stroke="none" 
	d="
M175.343750,112.687088 
	C175.244568,112.554581 175.573608,112.450043 175.573608,112.450043 
	C175.573608,112.450043 175.442917,112.819603 175.343750,112.687088 
z"/>
</svg>